<?xml version="1.0" encoding="UTF-8" standalone="no"?>
<!DOCTYPE svg PUBLIC "-//W3C//DTD SVG 1.1//EN" "http://www.w3.org/Graphics/SVG/1.1/DTD/svg11.dtd">
<svg width="100%" height="100%" viewBox="0 0 1024 1024" version="1.1" xmlns="http://www.w3.org/2000/svg" xmlns:xlink="http://www.w3.org/1999/xlink" xml:space="preserve" xmlns:serif="http://www.serif.com/" style="fill-rule:evenodd;clip-rule:evenodd;stroke-linejoin:round;stroke-miterlimit:2;">
    <path d="M268.8,1024C89.6,1024 0,934.4 0,755.2L0,268.8C0,89.6 89.6,0 268.8,0L755.2,0C934.4,0 1024,89.6 1024,268.8L1024,755.2C1024,934.4 934.4,1024 755.2,1024L268.8,1024Z" style="fill:rgb(153,0,0);fill-rule:nonzero;"/>
    <path d="M277.153,916.663C275.656,916.663 274.384,916.139 273.336,915.092C272.288,914.044 271.765,912.772 271.765,911.275L271.765,607.725C271.765,606.228 272.288,604.956 273.336,603.908C274.384,602.861 275.656,602.337 277.153,602.337L329.691,602.337C331.187,602.337 332.46,602.861 333.507,603.908C334.555,604.956 335.079,606.228 335.079,607.725L335.079,911.275C335.079,912.772 334.555,914.044 333.507,915.092C332.46,916.139 331.187,916.663 329.691,916.663L277.153,916.663Z" style="fill:white;fill-rule:nonzero;"/>
    <path d="M459.912,920.256C432.969,920.256 411.341,912.248 395.026,896.232C378.711,880.216 370.553,858.737 370.553,831.795L370.553,686.307C370.553,659.664 378.711,638.409 395.026,622.543C411.341,606.677 432.969,598.744 459.912,598.744C487.153,598.744 508.932,606.677 525.247,622.543C541.562,638.409 549.719,659.664 549.719,686.307L549.719,691.246C549.719,692.743 549.195,694.015 548.148,695.063C547.1,696.111 545.828,696.635 544.331,696.635L491.793,698.88C488.201,698.88 486.405,697.233 486.405,693.94L486.405,682.265C486.405,673.584 484.01,666.549 479.22,661.161C474.43,655.772 467.994,653.078 459.912,653.078C452.128,653.078 445.842,655.772 441.052,661.161C436.262,666.549 433.867,673.584 433.867,682.265L433.867,837.184C433.867,845.865 436.262,852.825 441.052,858.064C445.842,863.303 452.128,865.922 459.912,865.922C467.994,865.922 474.43,863.303 479.22,858.064C484.01,852.825 486.405,845.865 486.405,837.184L486.405,825.06C486.405,823.563 486.929,822.29 487.976,821.243C489.024,820.195 490.296,819.671 491.793,819.671L544.331,821.916C545.828,821.916 547.1,822.44 548.148,823.488C549.195,824.536 549.719,825.808 549.719,827.305L549.719,831.795C549.719,858.737 541.487,880.216 525.022,896.232C508.557,912.248 486.854,920.256 459.912,920.256Z" style="fill:white;fill-rule:nonzero;"/>
    <path d="M664.224,920.256C646.861,920.256 631.594,916.813 618.422,909.928C605.25,903.043 595.072,893.388 587.887,880.965C580.703,868.541 577.111,854.247 577.111,838.082L577.111,825.06C577.111,823.563 577.634,822.29 578.682,821.243C579.73,820.195 581.002,819.671 582.499,819.671L634.138,819.671C635.635,819.671 636.907,820.195 637.955,821.243C639.003,822.29 639.527,823.563 639.527,825.06L639.527,834.938C639.527,844.219 641.922,851.702 646.711,857.39C651.501,863.078 657.488,865.922 664.673,865.922C671.858,865.922 677.845,863.228 682.634,857.839C687.424,852.451 689.819,845.416 689.819,836.735C689.819,827.754 686.826,820.045 680.838,813.609C674.851,807.173 663.176,797.668 645.813,785.095C630.845,774.318 618.721,764.739 609.441,756.357C600.161,747.975 592.228,737.647 585.642,725.373C579.056,713.099 575.763,698.88 575.763,682.714C575.763,657.269 583.696,636.913 599.562,621.645C615.428,606.378 636.384,598.744 662.428,598.744C688.771,598.744 709.951,606.677 725.967,622.543C741.982,638.409 749.99,659.215 749.99,684.96L749.99,695.737C749.99,697.233 749.466,698.506 748.419,699.553C747.371,700.601 746.099,701.125 744.602,701.125L692.962,701.125C691.466,701.125 690.193,700.601 689.146,699.553C688.098,698.506 687.574,697.233 687.574,695.737L687.574,683.613C687.574,674.332 685.254,666.923 680.614,661.385C675.974,655.847 669.912,653.078 662.428,653.078C655.243,653.078 649.406,655.697 644.915,660.936C640.425,666.175 638.18,673.434 638.18,682.714C638.18,691.695 641.024,699.628 646.711,706.514C652.399,713.399 663.625,722.978 680.389,735.252C698.95,749.022 712.945,760.174 722.374,768.705C731.804,777.237 739.138,786.667 744.377,796.995C749.616,807.323 752.235,819.671 752.235,834.04C752.235,860.384 744.153,881.339 727.987,896.906C711.822,912.472 690.567,920.256 664.224,920.256Z" style="fill:white;fill-rule:nonzero;"/>
    <path d="M303.646,425.256C286.284,425.256 271.016,421.813 257.844,414.928C244.673,408.043 234.494,398.388 227.31,385.965C220.125,373.541 216.533,359.247 216.533,343.082L216.533,330.06C216.533,328.563 217.057,327.29 218.105,326.243C219.152,325.195 220.425,324.671 221.921,324.671L273.561,324.671C275.058,324.671 276.33,325.195 277.378,326.243C278.425,327.29 278.949,328.563 278.949,330.06L278.949,339.938C278.949,349.219 281.344,356.702 286.134,362.39C290.924,368.078 296.911,370.922 304.095,370.922C311.28,370.922 317.267,368.228 322.057,362.839C326.847,357.451 329.241,350.416 329.241,341.735C329.241,332.754 326.248,325.045 320.261,318.609C314.274,312.173 302.599,302.668 285.236,290.095C270.268,279.318 258.144,269.739 248.864,261.357C239.584,252.975 231.651,242.647 225.065,230.373C218.479,218.099 215.186,203.88 215.186,187.714C215.186,162.269 223.119,141.913 238.985,126.645C254.851,111.378 275.806,103.744 301.85,103.744C328.194,103.744 349.373,111.677 365.389,127.543C381.405,143.409 389.413,164.215 389.413,189.96L389.413,200.737C389.413,202.233 388.889,203.506 387.841,204.553C386.793,205.601 385.521,206.125 384.024,206.125L332.385,206.125C330.888,206.125 329.616,205.601 328.568,204.553C327.52,203.506 326.996,202.233 326.996,200.737L326.996,188.613C326.996,179.332 324.676,171.923 320.036,166.385C315.396,160.847 309.334,158.078 301.85,158.078C294.666,158.078 288.828,160.697 284.338,165.936C279.847,171.175 277.602,178.434 277.602,187.714C277.602,196.695 280.446,204.628 286.134,211.514C291.822,218.399 303.048,227.978 319.812,240.252C338.372,254.022 352.367,265.174 361.797,273.705C371.227,282.237 378.561,291.667 383.8,301.995C389.038,312.323 391.658,324.671 391.658,339.04C391.658,365.384 383.575,386.339 367.41,401.906C351.244,417.472 329.99,425.256 303.646,425.256Z" style="fill:white;fill-rule:nonzero;"/>
    <path d="M601.359,334.999C601.359,362.839 592.977,384.243 576.212,399.211C559.448,414.179 537.745,421.663 511.102,421.663L426.234,421.663C424.737,421.663 423.465,421.139 422.417,420.092C421.369,419.044 420.845,417.772 420.845,416.275L420.845,112.725C420.845,111.228 421.369,109.956 422.417,108.908C423.465,107.861 424.737,107.337 426.234,107.337L501.223,107.337C531.159,107.337 554.584,114.521 571.498,128.89C588.411,143.26 596.868,164.664 596.868,193.103C596.868,222.739 586.69,244.293 566.334,257.764C565.136,258.663 564.986,259.561 565.885,260.459C589.534,277.223 601.359,302.07 601.359,334.999ZM486.405,161.67C484.908,161.67 484.16,162.419 484.16,163.915L484.16,234.414C484.16,235.911 484.908,236.66 486.405,236.66L502.57,236.66C512.748,236.66 520.681,233.442 526.369,227.005C532.057,220.569 534.901,211.514 534.901,199.839C534.901,187.565 532.132,178.135 526.594,171.549C521.056,164.963 513.048,161.67 502.57,161.67L486.405,161.67ZM506.163,366.881C516.041,366.881 523.825,363.288 529.512,356.104C535.2,348.919 538.044,338.741 538.044,325.569C538.044,312.397 535.2,301.92 529.512,294.137C523.825,286.353 516.191,282.462 506.612,282.462L486.405,282.462C484.908,282.462 484.16,283.21 484.16,284.707L484.16,364.635C484.16,366.132 484.908,366.881 486.405,366.881L506.163,366.881Z" style="fill:white;fill-rule:nonzero;"/>
    <path d="M719.905,425.256C692.962,425.256 671.334,416.799 655.019,399.885C638.704,382.971 630.546,360.444 630.546,332.305L630.546,112.725C630.546,111.228 631.07,109.956 632.118,108.908C633.165,107.861 634.438,107.337 635.935,107.337L688.472,107.337C689.969,107.337 691.241,107.861 692.289,108.908C693.337,109.956 693.86,111.228 693.86,112.725L693.86,338.591C693.86,348.171 696.255,355.954 701.045,361.941C705.835,367.928 712.121,370.922 719.905,370.922C727.688,370.922 733.9,367.928 738.54,361.941C743.18,355.954 745.5,348.171 745.5,338.591L745.5,112.725C745.5,111.228 746.024,109.956 747.071,108.908C748.119,107.861 749.391,107.337 750.888,107.337L803.426,107.337C804.923,107.337 806.195,107.861 807.243,108.908C808.29,109.956 808.814,111.228 808.814,112.725L808.814,332.305C808.814,360.444 800.657,382.971 784.342,399.885C768.027,416.799 746.548,425.256 719.905,425.256Z" style="fill:white;fill-rule:nonzero;"/>
    <path d="M512,566L401.5,468L622.5,468L512,566Z" style="fill:white;"/>
</svg>
